HIERARCHY
ROOT hip
{
  OFFSET 0 0 0
  CHANNELS 6 Xposition Yposition Zposition Zrotation Yrotation Xrotation
  JOINT abdomen
  {
    OFFSET 0 20.6881 -0.73152
    CHANNELS 3 Zrotation Xrotation Yrotation
    JOINT chest
    {
      OFFSET 0 11.7043 -0.48768
      CHANNELS 3 Zrotation Xrotation Yrotation
      JOINT neck
      {
        OFFSET 0 22.1894 -2.19456
        CHANNELS 3 Zrotation Xrotation Yrotation
        JOINT head
        {
          OFFSET -0.24384 7.07133 1.2192
          CHANNELS 3 Zrotation Xrotation Yrotation
          JOINT leftEye
          {
            OFFSET 4.14528 8.04674 8.04672
            CHANNELS 3 Zrotation Xrotation Yrotation
            End Site
            {
              OFFSET 1 0 0
            }
          }
          JOINT rightEye
          {
            OFFSET -3.6576 8.04674 8.04672
            CHANNELS 3 Zrotation Xrotation Yrotation
            End Site
            {
              OFFSET 1 0 0
            }
          }
        }
      }
      JOINT rCollar
      {
        OFFSET -2.68224 19.2634 -4.8768
        CHANNELS 3 Zrotation Xrotation Yrotation
        JOINT rShldr
        {
          OFFSET -8.77824 -1.95073 1.46304
          CHANNELS 3 Zrotation Xrotation Yrotation
          JOINT rForeArm
          {
            OFFSET -28.1742 -1.7115 0.48768
            CHANNELS 3 Zrotation Xrotation Yrotation
            JOINT rHand
            {
              OFFSET -22.5879 0.773209 7.07136
              CHANNELS 3 Zrotation Xrotation Yrotation
              JOINT rThumb1
              {
                OFFSET -1.2192 -0.487915 3.41376
                CHANNELS 3 Zrotation Xrotation Yrotation
                JOINT rThumb2
                {
                  OFFSET -3.37035 -0.52449 3.41376
                  CHANNELS 3 Zrotation Xrotation Yrotation
                  End Site
                  {
                    OFFSET -1.78271 -1.18214 1.43049
                  }
                }
              }
              JOINT rIndex1
              {
                OFFSET -7.75947 0.938293 5.60832
                CHANNELS 3 Zrotation Xrotation Yrotation
                JOINT rIndex2
                {
                  OFFSET -2.54057 -0.884171 1.56538
                  CHANNELS 3 Zrotation Xrotation Yrotation
                  End Site
                  {
                    OFFSET -1.62519 -0.234802 1.16502
                  }
                }
              }
              JOINT rMid1
              {
                OFFSET -8.24714 1.18213 3.41376
                CHANNELS 3 Zrotation Xrotation Yrotation
                JOINT rMid2
                {
                  OFFSET -3.10165 -0.590103 1.0647
                  CHANNELS 3 Zrotation Xrotation Yrotation
                  End Site
                  {
                    OFFSET -2.48547 -0.328903 0.83742
                  }
                }
              }
              JOINT rRing1
              {
                OFFSET -8.82822 0.546677 1.51678
                CHANNELS 3 Zrotation Xrotation Yrotation
                JOINT rRing2
                {
                  OFFSET -2.60934 -0.819778 -0.0198488
                  CHANNELS 3 Zrotation Xrotation Yrotation
                  End Site
                  {
                    OFFSET -2.33842 -0.294052 0.168128
                  }
                }
              }
              JOINT rPinky1
              {
                OFFSET -8.27202 -0.0477905 -0.4584
                CHANNELS 3 Zrotation Xrotation Yrotation
                JOINT rPinky2
                {
                  OFFSET -1.82734 -0.647385 -0.700984
                  CHANNELS 3 Zrotation Xrotation Yrotation
                  End Site
                  {
                    OFFSET -1.69225 -0.51767 -0.607171
                  }
                }
              }
            }
          }
        }
      }
      JOINT lCollar
      {
        OFFSET 2.68224 19.2634 -4.8768
        CHANNELS 3 Zrotation Xrotation Yrotation
        JOINT lShldr
        {
          OFFSET 8.77824 -1.95073 1.46304
          CHANNELS 3 Zrotation Xrotation Yrotation
          JOINT lForeArm
          {
            OFFSET 28.1742 -1.7115 0.48768
            CHANNELS 3 Zrotation Xrotation Yrotation
            JOINT lHand
            {
              OFFSET 22.5879 0.773209 7.07136
              CHANNELS 3 Zrotation Xrotation Yrotation
              JOINT lThumb1
              {
                OFFSET 1.2192 -0.487915 3.41376
                CHANNELS 3 Zrotation Xrotation Yrotation
                JOINT lThumb2
                {
                  OFFSET 3.37035 -0.52449 3.41376
                  CHANNELS 3 Zrotation Xrotation Yrotation
                  End Site
                  {
                    OFFSET 1.78271 -1.18214 1.43049
                  }
                }
              }
              JOINT lIndex1
              {
                OFFSET 7.75947 0.938293 5.60832
                CHANNELS 3 Zrotation Xrotation Yrotation
                JOINT lIndex2
                {
                  OFFSET 2.54057 -0.884171 1.56538
                  CHANNELS 3 Zrotation Xrotation Yrotation
                  End Site
                  {
                    OFFSET 1.62519 -0.234802 1.16502
                  }
                }
              }
              JOINT lMid1
              {
                OFFSET 8.24714 1.18213 3.41376
                CHANNELS 3 Zrotation Xrotation Yrotation
                JOINT lMid2
                {
                  OFFSET 3.10165 -0.590103 1.0647
                  CHANNELS 3 Zrotation Xrotation Yrotation
                  End Site
                  {
                    OFFSET 2.48547 -0.328903 0.83742
                  }
                }
              }
              JOINT lRing1
              {
                OFFSET 8.82822 0.546677 1.51678
                CHANNELS 3 Zrotation Xrotation Yrotation
                JOINT lRing2
                {
                  OFFSET 2.60934 -0.819778 -0.0198488
                  CHANNELS 3 Zrotation Xrotation Yrotation
                  End Site
                  {
                    OFFSET 2.33842 -0.294052 0.168128
                  }
                }
              }
              JOINT lPinky1
              {
                OFFSET 8.27202 -0.0477905 -0.4584
                CHANNELS 3 Zrotation Xrotation Yrotation
                JOINT lPinky2
                {
                  OFFSET 1.82734 -0.647385 -0.700984
                  CHANNELS 3 Zrotation Xrotation Yrotation
                  End Site
                  {
                    OFFSET 1.69225 -0.51767 -0.607171
                  }
                }
              }
            }
          }
        }
      }
    }
  }
  JOINT rButtock
  {
    OFFSET -8.77824 4.35084 1.2192
    CHANNELS 3 Zrotation Xrotation Yrotation
    JOINT rThigh
    {
      OFFSET 0 -1.70687 -2.19456
      CHANNELS 3 Zrotation Xrotation Yrotation
      JOINT rShin
      {
        OFFSET 0 -36.8199 0.73152
        CHANNELS 3 Zrotation Xrotation Yrotation
        JOINT rFoot
        {
          OFFSET 0.73152 -45.1104 -5.12064
          CHANNELS 3 Zrotation Xrotation Yrotation
          End Site
          {
            OFFSET -1.1221 -3.69964 12.103
          }
        }
      }
    }
  }
  JOINT lButtock
  {
    OFFSET 8.77824 4.35084 1.2192
    CHANNELS 3 Zrotation Xrotation Yrotation
    JOINT lThigh
    {
      OFFSET 0 -1.70687 -2.19456
      CHANNELS 3 Zrotation Xrotation Yrotation
      JOINT lShin
      {
        OFFSET 0 -36.8199 0.73152
        CHANNELS 3 Zrotation Xrotation Yrotation
        JOINT lFoot
        {
          OFFSET -0.73152 -45.1104 -5.12064
          CHANNELS 3 Zrotation Xrotation Yrotation
          End Site
          {
            OFFSET 1.1221 -3.69964 12.103
          }
        }
      }
    }
  }
}
MOTION
Frames:	6
Frame Time:	0.03333333333333333
-82.66927 81.51569 38.558193 167.21854 131.67918 -181.50233 5.008927 -3.1756475 -6.9082932 -1.6765467 -11.589997 -2.261499 -6.229571 25.450806 -17.226532 25.05243 -26.745977 -27.978622 0.08572634 -0.048940763 -0.075927526 -0.04290159 0.044018086 0.06500109 -0.005748938 0.04532268 0.06474269 90.48349 12.51389 -13.638754 -25.577217 -22.12915 53.599716 -0.68373245 -15.4514065 -1.3553905 0.025336586 0.023072805 -0.04492987 -0.024428276 -0.061371703 -0.11369917 0.11270505 -0.014678556 0.06032636 7.7566185 5.6187024 0.517463 0.08323263 -0.016256649 0.05529977 3.0574713 1.0388668 0.17136197 0.04408321 -0.11994508 -0.019807935 10.458392 0.85537153 0.04805107 -0.06215109 -0.065912604 0.10534968 2.3190186 -0.7748234 -0.2864109 0.027708475 0.08850692 -0.008826765 -86.93313 6.659201 34.76454 27.964025 -41.35672 -87.182304 0.6281692 21.379751 -3.2603347 -0.008305056 0.123140246 -0.028580658 -0.10595896 -0.012321447 -0.062490623 0.0085210875 0.047562353 0.033923626 -7.9370866 5.4910746 -0.40201366 0.005334004 -0.09035078 0.057423852 -3.0155241 1.045015 -0.070336856 0.09000193 0.041836135 0.0023142067 -10.470214 0.7752134 -0.0056113736 0.021525273 -0.002219838 0.03422837 -2.3679109 -0.72682464 0.16851792 -0.052944608 -0.1085472 0.109380975 16.208763 -22.468277 7.7792726 -0.0829474 32.66725 0.65631986 1.7293419 -11.303049 12.744759 0.025782576 0.035356257 -0.016061295 16.79243 -30.53667 -21.94569 0.088894 45.243515 -0.7128666 2.2940407 -19.38804 4.878736
-80.08652 81.70244 37.05898 169.51637 143.15192 -177.87798 4.2310934 -4.423449 -6.828823 -1.0615451 -10.842119 -2.3328435 -5.1256475 26.92841 -19.73237 22.301878 -26.447704 -32.684803 0.06700714 -0.054604776 -0.080352634 -0.05571748 0.05245609 0.05967752 -0.01693616 0.062128916 0.07421622 90.05989 13.207368 -10.494514 -25.75803 -23.115269 55.353317 -0.60244805 -15.877474 -1.4450985 0.013333062 0.03266474 -0.023580123 -0.02462966 -0.056188095 -0.10583879 0.1254251 -0.020630104 0.072421774 7.71541 5.608837 0.5238595 0.09127025 -0.007228154 0.055554513 3.079586 1.0397753 0.18060246 0.050201833 -0.11747669 -0.015196917 10.424987 0.8710928 0.06167794 -0.08016369 -0.07280656 0.11194989 2.3340104 -0.7856597 -0.2931953 0.022645919 0.09415271 -0.02085446 -85.32264 5.220345 36.965454 28.077162 -41.444748 -87.18479 0.4119496 20.694595 -3.217002 -0.017532881 0.13148203 -0.03816704 -0.09588486 -0.008440833 -0.06969284 0.010086374 0.066700086 0.025356168 -7.9143257 5.466547 -0.39727128 -0.0028365562 -0.070207536 0.0606207 -3.0141182 1.0526764 -0.07384949 0.09633597 0.045621872 0.006583608 -10.432092 0.79452574 -0.012390549 0.016508473 -0.024521632 0.030235965 -2.3773506 -0.73913795 0.1738396 -0.06146663 -0.10244667 0.11286618 14.044031 -22.310135 10.725108 -0.07377753 32.36855 0.6023934 2.5268812 -8.988207 18.781927 0.011744857 0.030932004 -0.030938353 15.061702 -24.024525 -27.929066 0.539273 40.075684 -1.1746106 2.4170458 -20.038818 2.4969018
-77.33767 81.87642 35.31597 171.70067 155.25313 -175.57877 3.2999084 -4.8856106 -6.5038395 -0.054167025 -10.238883 -2.2932312 -4.48671 28.293837 -21.107548 19.785334 -25.94313 -35.730885 0.037375007 -0.057293832 -0.083385214 -0.065670505 0.05040861 0.05165968 -0.01843089 0.069746554 0.07473635 89.4825 13.920833 -7.3415966 -25.74471 -24.150043 57.149113 -0.6111461 -15.803783 -1.7127419 -0.0092976745 0.03971072 0.0119566005 -0.03245407 -0.044900566 -0.092444256 0.11476692 -0.025360385 0.09212196 7.6731443 5.5959992 0.52213955 0.09296097 0.0082283495 0.04223805 3.0848987 1.0346498 0.17956716 0.0507149 -0.10403 -0.006585249 10.378663 0.8785805 0.05799839 -0.10242615 -0.06300011 0.11089996 2.3343208 -0.79097575 -0.29644352 0.015413389 0.0911962 -0.037547015 -83.17202 4.895836 38.04606 27.827585 -41.324955 -86.81491 0.42919198 19.892954 -3.2487233 -0.018951453 0.13388744 -0.060358644 -0.07234312 0.0006609275 -0.072897434 0.023926899 0.08266464 0.014440033 -7.8847613 5.4395695 -0.40136364 -0.009491615 -0.035595503 0.06950219 -3.007425 1.0517452 -0.06712453 0.091313705 0.03435809 0.01835864 -10.383377 0.80233556 -0.022739993 0.0058758166 -0.051401038 0.016658938 -2.3733208 -0.75009996 0.18101865 -0.052931134 -0.0899208 0.1049861 11.21762 -23.376295 12.826839 -0.09172975 33.358337 0.55207074 2.8694553 -6.7502856 24.869473 -0.0094124535 0.009548337 -0.036518645 13.914311 -18.512564 -28.302523 0.7355659 36.191017 -1.3310472 2.23292 -19.976324 0.37059435
-74.61844 82.156906 33.578342 174.56091 165.80304 -176.0253 1.4514515 -4.7092614 -6.7460933 1.554682 -9.760353 -2.254231 -4.3267727 29.325056 -21.308088 17.76817 -24.99642 -37.24321 0.0118749235 -0.058424868 -0.079989195 -0.07365078 0.037297487 0.0480138 -0.013801864 0.06906153 0.066460855 88.43978 13.981073 -4.957997 -25.821423 -25.098936 58.684177 -0.604419 -15.581623 -1.7048677 -0.03681237 0.044311438 0.048604436 -0.0492256 -0.033232044 -0.07314492 0.08475678 -0.028600935 0.11033415 7.6421986 5.58833 0.51494354 0.08527271 0.025913684 0.014903739 3.0732398 1.0189956 0.16844083 0.04600292 -0.08337967 0.0020873698 10.343383 0.8693573 0.034848742 -0.114503525 -0.041625146 0.09861832 2.321862 -0.7882043 -0.29458898 0.012894169 0.079390325 -0.053790364 -81.13247 5.082241 38.924583 27.534554 -41.204834 -86.49587 0.4454269 19.058224 -3.2769713 -0.0108121885 0.12205211 -0.08517144 -0.04026487 0.00981861 -0.06855231 0.048077486 0.09612659 0.002442006 -7.870674 5.42081 -0.409144 -0.011147295 0.005223947 0.07972848 -2.9985504 1.0380723 -0.05483505 0.08227074 0.013475162 0.027283136 -10.357264 0.79629415 -0.03666365 -0.0067928894 -0.074566215 0.00031733696 -2.356336 -0.7504897 0.19202794 -0.030547965 -0.074552074 0.08923125 7.9956546 -25.259401 14.190473 -0.12321845 35.058224 0.57260674 2.6817071 -5.485626 28.706242 -0.029144868 -0.01865997 -0.033250373 12.707112 -14.216602 -22.65789 0.6517251 32.834457 -1.1952963 1.7886446 -20.491234 -0.67546487
-72.03377 82.49017 32.017597 176.42538 172.93678 -177.071 -1.2401611 -4.216759 -8.008609 3.3736517 -9.342182 -2.3270743 -4.4747014 30.005146 -20.90833 16.281897 -23.83187 -37.595055 -0.0016650719 -0.0616008 -0.07090398 -0.080448955 0.02197357 0.051917013 -0.006299395 0.062966086 0.055490747 86.90608 13.381976 -3.6950994 -26.086496 -26.074778 60.1997 -0.67356974 -15.774746 -1.5186435 -0.060370624 0.04501393 0.07161952 -0.063424334 -0.026570715 -0.05197827 0.0547795 -0.02937456 0.119888835 7.6230936 5.5804567 0.50638217 0.073778406 0.040964965 -0.012759273 3.0495577 1.0001935 0.15612558 0.047229476 -0.06833906 0.0022085523 10.324756 0.8457341 0.0038112986 -0.116264544 -0.025549496 0.0795162 2.3047004 -0.78082556 -0.2906902 0.02079307 0.06744977 -0.062459167 -79.230515 5.3275337 39.146812 27.62802 -41.38604 -86.58696 0.33794087 18.739141 -3.3079104 0.0032983143 0.10332267 -0.10200209 -0.011189023 0.020430375 -0.0622497 0.069025785 0.105433635 -0.0039529186 -7.8691707 5.409047 -0.4169353 -0.010456912 0.04431824 0.087532446 -2.9896696 1.0168927 -0.042199306 0.070235364 -0.0046748905 0.024315393 -10.352954 0.7841952 -0.047396388 -0.009423553 -0.08553435 -0.0052401954 -2.3342192 -0.73937696 0.20261033 -0.008497342 -0.05882447 0.076433666 4.698071 -27.839594 14.258428 -0.16806336 37.383614 0.6377567 2.049995 -5.1858883 27.615843 -0.03866039 -0.039659332 -0.02752881 10.449046 -11.513502 -14.825145 0.6220725 30.554867 -1.1227093 1.1151805 -21.701708 -0.64678913
-69.62751 82.55759 30.679388 177.88417 176.95767 -176.97449 -3.558773 -3.2166634 -9.668294 4.695897 -8.926869 -2.3996708 -4.776092 30.40636 -20.730547 15.62182 -22.65144 -37.67483 -0.01143395 -0.066217475 -0.06401745 -0.0877373 0.009004056 0.05509321 0.00340645 0.051297467 0.0462701 85.546 12.65694 -3.3311813 -26.189085 -26.53188 60.909588 -0.7361906 -15.930761 -1.5140395 -0.07677297 0.044639926 0.081633896 -0.06514346 -0.02394264 -0.037328582 0.0360404 -0.027222572 0.12502329 7.5952954 5.5538917 0.5021182 0.065665424 0.05609906 -0.029118001 3.0221903 0.98440605 0.1489002 0.0576771 -0.059619684 -0.0060838573 10.29012 0.824058 -0.018267287 -0.11793372 -0.023334486 0.059837684 2.2895434 -0.7740972 -0.28931287 0.03179378 0.05698416 -0.06533942 -76.88693 5.5532737 37.64698 27.847927 -41.64338 -86.69239 0.2421922 19.020578 -3.2012844 0.019990548 0.08923615 -0.112761885 0.006632647 0.035341743 -0.06397 0.080660686 0.10723921 -0.0043669986 -7.8476763 5.391763 -0.42716813 -0.015408159 0.07680777 0.088475436 -2.9766762 0.9981602 -0.031141711 0.05523435 -0.01265063 0.018601913 -10.32804 0.7748002 -0.049067598 -0.004235571 -0.086937256 -0.004713577 -2.3116267 -0.7287246 0.2074617 0.0068149543 -0.04476351 0.06934378 1.8883355 -30.12463 12.867898 -0.25750652 40.302723 0.72452724 0.992565 -5.5204644 22.325161 -0.043298833 -0.05174039 -0.024182096 7.6255174 -10.399374 -8.979638 0.6026741 29.860739 -1.0761957 0.381221 -22.666082 -0.6275353
